<svg width="44" height="44" viewBox="0 0 44 44" fill="none" xmlns="http://www.w3.org/2000/svg">
<rect width="43.9523" height="44" rx="5" fill="#FF3B30"/>
<rect x="31.5333" y="32.4" width="19.0667" height="19.9333" transform="rotate(-180 31.5333 32.4)" fill="white"/>
<path d="M30.5654 9L13.4345 9C11.9564 9 10.8477 9.36443 10.1086 10.0933C9.36955 10.8221 9 11.9155 9 13.3733L9 30.5985C9 32.0562 9.36955 33.1496 10.1086 33.8785C10.8477 34.6073 11.9564 34.9718 13.4345 34.9718H30.5654C32.0436 34.9718 33.1523 34.6073 33.8914 33.8785C34.6305 33.1496 35 32.0562 35 30.5985V13.3733C35 11.9155 34.6305 10.8221 33.8914 10.0933C33.1523 9.36443 32.0436 9 30.5654 9ZM25.7496 13.4297C26.2392 13.4297 26.6252 13.5614 26.9077 13.8247C27.1901 14.088 27.3408 14.4689 27.3596 14.9674L27.8539 26.465H29.0402C29.2191 26.465 29.3674 26.5238 29.4851 26.6413C29.6027 26.7589 29.6616 26.9023 29.6616 27.0716C29.6616 27.2503 29.6027 27.4008 29.4851 27.523C29.3674 27.6453 29.2191 27.7064 29.0402 27.7064H25.5377V28.8774C25.5377 29.4793 25.3541 29.9589 24.987 30.3163C24.6198 30.6737 24.116 30.8524 23.4758 30.8524H20.5383C19.898 30.8524 19.3896 30.6737 19.013 30.3163C18.6364 29.9589 18.4481 29.4793 18.4481 28.8774V27.7064L14.9738 27.7064C14.795 27.7064 14.642 27.6453 14.515 27.523C14.3878 27.4008 14.329 27.2503 14.3384 27.0716C14.3478 26.9023 14.4114 26.7589 14.529 26.6413C14.6467 26.5238 14.795 26.465 14.9738 26.465H16.1179L16.6122 14.9674C16.6216 14.4689 16.7722 14.088 17.0641 13.8247C17.356 13.5614 17.742 13.4297 18.2221 13.4297L25.7496 13.4297ZM24.4927 15.6869C24.3326 15.6869 24.2079 15.7339 24.1184 15.8279C24.029 15.922 23.9842 16.0396 23.9842 16.1807L24.2667 24.6733C24.2761 25.0119 24.4503 25.1812 24.7892 25.1812C25.147 25.1812 25.3259 25.0119 25.3259 24.6733L25.0293 16.1807C25.0293 15.8515 24.8504 15.6869 24.4927 15.6869ZM22.0212 15.6869C21.654 15.6869 21.4704 15.8515 21.4704 16.1807V24.6733C21.4704 25.0119 21.654 25.1812 22.0212 25.1812C22.3695 25.1812 22.5437 25.0119 22.5437 24.6733V16.1807C22.5437 15.8515 22.3695 15.6869 22.0212 15.6869ZM19.5355 15.6869C19.1777 15.6869 18.9988 15.8515 18.9988 16.1807L18.7024 24.6733C18.7024 25.0119 18.8765 25.1812 19.2249 25.1812C19.5732 25.1812 19.7521 25.0119 19.7615 24.6733L20.044 16.1807C20.044 16.0396 19.9992 15.922 19.9098 15.8279C19.8204 15.7339 19.6956 15.6869 19.5355 15.6869ZM24.0549 27.7064H19.9592V28.8068C19.9592 28.9949 20.0205 29.1454 20.1429 29.2583C20.2652 29.3711 20.4253 29.4276 20.623 29.4276H23.4052C23.5935 29.4276 23.7489 29.3711 23.8713 29.2583C23.9937 29.1454 24.0549 28.9949 24.0549 28.8068V27.7064Z" fill="#FF3B30"/>
</svg>
