<svg width="14" height="14" viewBox="0 0 14 14" fill="none" xmlns="http://www.w3.org/2000/svg">
<g clip-path="url(#clip0_2_45)">
<path d="M8.23814 7.00031L13.7435 1.49499C14.0855 1.15324 14.0855 0.598736 13.7435 0.256988C13.4014 -0.0850522 12.8475 -0.0850522 12.5055 0.256988L7.00015 5.76231L1.49453 0.256988C1.15249 -0.0850522 0.59857 -0.0850522 0.25653 0.256988C-0.08551 0.598736 -0.08551 1.15324 0.25653 1.49499L5.76215 7.00031L0.25653 12.5056C-0.08551 12.8474 -0.08551 13.4019 0.25653 13.7436C0.42755 13.9144 0.651685 13.9999 0.875529 13.9999C1.09937 13.9999 1.32351 13.9144 1.49453 13.7433L7.00015 8.23802L12.5055 13.7433C12.6765 13.9144 12.9006 13.9999 13.1245 13.9999C13.3483 13.9999 13.5725 13.9144 13.7435 13.7433C14.0855 13.4016 14.0855 12.8471 13.7435 12.5053L8.23814 7.00031Z" fill="white"/>
</g>
<defs>
<clipPath id="clip0_2_45">
<rect width="14" height="14" fill="white"/>
</clipPath>
</defs>
</svg>
