<svg width="22" height="22" viewBox="0 0 22 22" fill="none" xmlns="http://www.w3.org/2000/svg">
<path d="M2.75 6.875H19.25C20.009 6.875 20.625 6.259 20.625 5.5C20.625 4.741 20.009 4.125 19.25 4.125H2.75C1.991 4.125 1.375 4.741 1.375 5.5C1.375 6.259 1.991 6.875 2.75 6.875ZM19.25 9.625H2.75C1.991 9.625 1.375 10.241 1.375 11C1.375 11.759 1.991 12.375 2.75 12.375H19.25C20.009 12.375 20.625 11.759 20.625 11C20.625 10.241 20.009 9.625 19.25 9.625ZM19.25 15.125H2.75C1.991 15.125 1.375 15.741 1.375 16.5C1.375 17.259 1.991 17.875 2.75 17.875H19.25C20.009 17.875 20.625 17.259 20.625 16.5C20.625 15.741 20.009 15.125 19.25 15.125Z" fill="white"/>
</svg>
